<?xml version="1.0" encoding="UTF-8" standalone="no" ?>
<!DOCTYPE svg PUBLIC "-//W3C//DTD SVG 1.1//EN" "http://www.w3.org/Graphics/SVG/1.1/DTD/svg11.dtd">
<svg xmlns="http://www.w3.org/2000/svg" xmlns:xlink="http://www.w3.org/1999/xlink" version="1.1" width="400" height="400" viewBox="0 0 400 400" xml:space="preserve">
<desc>Created with Fabric.js 3.6.2</desc>
<defs>
</defs>
<g transform="matrix(0.78 0 0 0.78 200 200)"  >
<rect style="stroke: none; stroke-width: 1; stroke-dasharray: none; stroke-linecap: butt; stroke-dashoffset: 0; stroke-linejoin: miter; stroke-miterlimit: 4; fill: none; fill-rule: nonzero; opacity: 1;"  x="-128" y="-128" rx="0" ry="0" width="256" height="256" />
</g>
<g transform="matrix(0.78 0 0 0.78 200 200)"  >
<path style="stroke: none; stroke-width: 1; stroke-dasharray: none; stroke-linecap: butt; stroke-dashoffset: 0; stroke-linejoin: miter; stroke-miterlimit: 4; fill: rgb(0,0,0); fill-rule: nonzero; opacity: 1;"  transform=" translate(-128, -128)" d="M 200 75.6 V 40 a 16 16 0 0 0 -16 -16 H 72 A 16 16 0 0 0 56 40 V 76 a 16.1 16.1 0 0 0 6.4 12.8 L 114.7 128 L 62.4 167.2 a 15.6 15.6 0 0 0 -6.3 11.9 a 2.8 2.8 0 0 0 -0.1 0.9 v 36 a 16 16 0 0 0 16 16 H 184 a 16 16 0 0 0 16 -16 V 180.4 a 2.8 2.8 0 0 0 -0.1 -0.9 a 15.6 15.6 0 0 0 -6.3 -11.9 L 141.3 128 l 52.3 -39.6 A 16.1 16.1 0 0 0 200 75.6 Z M 82.6 172.1 L 128 138 l 45.3 34.3 Z M 184 75.6 L 128 118 L 72 76 V 40 H 184 Z" stroke-linecap="round" />
</g>
</svg>